<svg xmlns="http://www.w3.org/2000/svg" width="805" height="600"><rect width="805" height="600" x="0" y="0" fill="#ffffff" id="background"/><g transform="translate(10,10)" id="visualization"><g><rect x="0" y="0" height="5.645161290322591" width="5" fill="black"><title>60 - 60: 1</title></rect><rect x="0" y="10.64516129032259" height="5.645161290322562" width="5" fill="black"><title>40 - 40: 1</title></rect><rect x="0" y="21.290322580645153" height="5.645161290322562" width="5" fill="black"><title>60 - 70: 1</title></rect><rect x="0" y="31.935483870967715" height="5.645161290322562" width="5" fill="black"><title>20 - 20: 1</title></rect><rect x="780" y="5" height="11.290322580645153" width="5" fill="black"><title>ANTI-ISLAMIC(MUSLIM): 2</title></rect><rect x="780" y="21.290322580645153" height="11.290322580645181" width="5" fill="black"><title>ANTI-LGBT(MIXED GROUP): 2</title></rect><rect x="780" y="37.580645161290334" height="11.290322580645181" width="5" fill="black"><title>ANTI-TRANSGENDER: 2</title></rect><rect x="780" y="53.870967741935516" height="22.580645161290334" width="5" fill="black"><title>ANTI-FEMALE: 4</title></rect><rect x="0" y="42.58064516129028" height="28.225806451612925" width="5" fill="black"><title>70 - 70: 5</title></rect><rect x="0" y="75.8064516129032" height="28.225806451612925" width="5" fill="black"><title>30 - 30: 5</title></rect><rect x="780" y="81.45161290322585" height="28.22580645161281" width="5" fill="black"><title>ANTI-WHITE: 5</title></rect><rect x="260" y="17.5" height="33.87096774193549" width="5" fill="black"><title>BLACK HISPANIC: 6</title></rect><rect x="260" y="56.37096774193549" height="33.87096774193549" width="5" fill="black"><title>ASIAN / PACIFIC ISLANDER: 6</title></rect><rect x="780" y="114.67741935483866" height="33.87096774193549" width="5" fill="black"><title>OTHER: 6</title></rect><rect x="0" y="109.03225806451613" height="39.51612903225805" width="5" fill="black"><title>50 - 50: 7</title></rect><rect x="780" y="153.54838709677415" height="39.51612903225808" width="5" fill="black"><title>ANTI-BLACK: 7</title></rect><rect x="0" y="153.54838709677418" height="56.451612903225794" width="5" fill="black"><title>40 - 50: 10</title></rect><rect x="0" y="214.99999999999997" height="62.096774193548384" width="5" fill="black"><title>10 - 20: 11</title></rect><rect x="0" y="282.09677419354836" height="62.09677419354841" width="5" fill="black"><title>50 - 60: 11</title></rect><rect x="0" y="349.19354838709677" height="101.61290322580646" width="5" fill="black"><title>20 - 30: 18</title></rect><rect x="520" y="25" height="112.90322580645164" width="5" fill="black"><title>FEMALE: 20</title></rect><rect x="780" y="198.06451612903223" height="112.90322580645162" width="5" fill="black"><title>ANTI-ASIAN: 20</title></rect><rect x="780" y="315.96774193548384" height="112.90322580645159" width="5" fill="black"><title>ANTI-MALE HOMOSEXUAL(GAY): 20</title></rect><rect x="260" y="95.24193548387098" height="118.54838709677415" width="5" fill="black"><title>WHITE: 21</title></rect><rect x="0" y="455.80645161290323" height="124.19354838709677" width="5" fill="black"><title>30 - 40: 22</title></rect><rect x="260" y="218.79032258064512" height="141.12903225806457" width="5" fill="black"><title>WHITE HISPANIC: 25</title></rect><rect x="780" y="433.87096774193543" height="141.12903225806457" width="5" fill="black"><title>ANTI-JEWISH: 25</title></rect><rect x="260" y="364.9193548387097" height="197.5806451612903" width="5" fill="black"><title>BLACK: 35</title></rect><rect x="520" y="142.90322580645164" height="412.09677419354836" width="5" fill="black"><title>MALE: 73</title></rect></g><g fill="none" stroke-opacity="1"><g style="mix-blend-mode: multiply;"><path d="M5,461.4516129032258C132.5,461.4516129032258,132.5,45.725806451612904,260,45.725806451612904" stroke="rgb(244, 125, 77)" stroke-width="11.290322580645162"/><title>30 - 40 → BLACK HISPANIC: 2</title></g><g style="mix-blend-mode: multiply;"><path d="M5,563.0645161290322C132.5,563.0645161290322,132.5,545.5645161290322,260,545.5645161290322" stroke="rgb(244, 125, 77)" stroke-width="33.87096774193549"/><title>30 - 40 → BLACK: 6</title></g><g style="mix-blend-mode: multiply;"><path d="M5,134.43548387096774C132.5,134.43548387096774,132.5,395.9677419354839,260,395.9677419354839" stroke="rgb(254, 216, 136)" stroke-width="28.225806451612904"/><title>50 - 50 → BLACK: 5</title></g><g style="mix-blend-mode: multiply;"><path d="M5,111.85483870967742C132.5,111.85483870967742,132.5,109.35483870967742,260,109.35483870967742" stroke="rgb(254, 216, 136)" stroke-width="5.645161290322581"/><title>50 - 50 → WHITE: 1</title></g><g style="mix-blend-mode: multiply;"><path d="M5,503.7903225806452C132.5,503.7903225806452,132.5,182.741935483871,260,182.741935483871" stroke="rgb(244, 125, 77)" stroke-width="62.09677419354839"/><title>30 - 40 → WHITE: 11</title></g><g style="mix-blend-mode: multiply;"><path d="M5,231.93548387096774C132.5,231.93548387096774,132.5,292.17741935483866,260,292.17741935483866" stroke="rgb(158, 1, 66)" stroke-width="11.290322580645162"/><title>10 - 20 → WHITE HISPANIC: 2</title></g><g style="mix-blend-mode: multiply;"><path d="M5,257.33870967741933C132.5,257.33870967741933,132.5,452.4193548387097,260,452.4193548387097" stroke="rgb(158, 1, 66)" stroke-width="39.516129032258064"/><title>10 - 20 → BLACK: 7</title></g><g style="mix-blend-mode: multiply;"><path d="M5,2.8225806451612905C132.5,2.8225806451612905,132.5,367.741935483871,260,367.741935483871" stroke="rgb(251, 248, 176)" stroke-width="5.645161290322581"/><title>60 - 60 → BLACK: 1</title></g><g style="mix-blend-mode: multiply;"><path d="M5,327.258064516129C132.5,327.258064516129,132.5,489.11290322580646,260,489.11290322580646" stroke="rgb(254, 237, 161)" stroke-width="33.87096774193549"/><title>50 - 60 → BLACK: 6</title></g><g style="mix-blend-mode: multiply;"><path d="M5,178.9516129032258C132.5,178.9516129032258,132.5,278.0645161290322,260,278.0645161290322" stroke="rgb(253, 190, 112)" stroke-width="16.935483870967744"/><title>40 - 50 → WHITE HISPANIC: 3</title></g><g style="mix-blend-mode: multiply;"><path d="M5,117.5C132.5,117.5,132.5,266.7741935483871,260,266.7741935483871" stroke="rgb(254, 216, 136)" stroke-width="5.645161290322581"/><title>50 - 50 → WHITE HISPANIC: 1</title></g><g style="mix-blend-mode: multiply;"><path d="M5,56.693548387096726C132.5,56.693548387096726,132.5,238.54838709677418,260,238.54838709677418" stroke="rgb(219, 241, 159)" stroke-width="28.225806451612904"/><title>70 - 70 → WHITE HISPANIC: 5</title></g><g style="mix-blend-mode: multiply;"><path d="M5,408.46774193548384C132.5,408.46774193548384,132.5,328.8709677419355,260,328.8709677419355" stroke="rgb(214, 66, 75)" stroke-width="39.516129032258064"/><title>20 - 30 → WHITE HISPANIC: 7</title></g><g style="mix-blend-mode: multiply;"><path d="M5,469.9193548387097C132.5,469.9193548387097,132.5,87.4193548387097,260,87.4193548387097" stroke="rgb(244, 125, 77)" stroke-width="5.645161290322581"/><title>30 - 40 → ASIAN / PACIFIC ISLANDER: 1</title></g><g style="mix-blend-mode: multiply;"><path d="M5,164.83870967741936C132.5,164.83870967741936,132.5,117.82258064516128,260,117.82258064516128" stroke="rgb(253, 190, 112)" stroke-width="11.290322580645162"/><title>40 - 50 → WHITE: 2</title></g><g style="mix-blend-mode: multiply;"><path d="M5,287.7419354838709C132.5,287.7419354838709,132.5,73.30645161290323,260,73.30645161290323" stroke="rgb(254, 237, 161)" stroke-width="11.290322580645162"/><title>50 - 60 → ASIAN / PACIFIC ISLANDER: 2</title></g><g style="mix-blend-mode: multiply;"><path d="M5,304.67741935483866C132.5,304.67741935483866,132.5,303.46774193548384,260,303.46774193548384" stroke="rgb(254, 237, 161)" stroke-width="11.290322580645162"/><title>50 - 60 → WHITE HISPANIC: 2</title></g><g style="mix-blend-mode: multiply;"><path d="M5,540.483870967742C132.5,540.483870967742,132.5,354.2741935483871,260,354.2741935483871" stroke="rgb(244, 125, 77)" stroke-width="11.290322580645162"/><title>30 - 40 → WHITE HISPANIC: 2</title></g><g style="mix-blend-mode: multiply;"><path d="M5,198.70967741935482C132.5,198.70967741935482,132.5,421.37096774193554,260,421.37096774193554" stroke="rgb(253, 190, 112)" stroke-width="22.580645161290324"/><title>40 - 50 → BLACK: 4</title></g><g style="mix-blend-mode: multiply;"><path d="M5,13.46774193548388C132.5,13.46774193548388,132.5,98.06451612903227,260,98.06451612903227" stroke="rgb(250, 158, 91)" stroke-width="5.645161290322581"/><title>40 - 40 → WHITE: 1</title></g><g style="mix-blend-mode: multiply;"><path d="M5,24.112903225806445C132.5,24.112903225806445,132.5,103.70967741935485,260,103.70967741935485" stroke="rgb(240, 248, 169)" stroke-width="5.645161290322581"/><title>60 - 70 → WHITE: 1</title></g><g style="mix-blend-mode: multiply;"><path d="M5,368.9516129032258C132.5,368.9516129032258,132.5,81.77419354838712,260,81.77419354838712" stroke="rgb(214, 66, 75)" stroke-width="5.645161290322581"/><title>20 - 30 → ASIAN / PACIFIC ISLANDER: 1</title></g><g style="mix-blend-mode: multiply;"><path d="M5,296.2096774193548C132.5,296.2096774193548,132.5,131.93548387096774,260,131.93548387096774" stroke="rgb(254, 237, 161)" stroke-width="5.645161290322581"/><title>50 - 60 → WHITE: 1</title></g><g style="mix-blend-mode: multiply;"><path d="M5,380.241935483871C132.5,380.241935483871,132.5,143.22580645161293,260,143.22580645161293" stroke="rgb(214, 66, 75)" stroke-width="16.935483870967744"/><title>20 - 30 → WHITE: 3</title></g><g style="mix-blend-mode: multiply;"><path d="M5,34.758064516129004C132.5,34.758064516129004,132.5,221.6129032258064,260,221.6129032258064" stroke="rgb(188, 34, 73)" stroke-width="5.645161290322581"/><title>20 - 20 → WHITE HISPANIC: 1</title></g><g style="mix-blend-mode: multiply;"><path d="M5,439.51612903225805C132.5,439.51612903225805,132.5,517.3387096774194,260,517.3387096774194" stroke="rgb(214, 66, 75)" stroke-width="22.580645161290324"/><title>20 - 30 → BLACK: 4</title></g><g style="mix-blend-mode: multiply;"><path d="M5,217.82258064516125C132.5,217.82258064516125,132.5,64.83870967741936,260,64.83870967741936" stroke="rgb(158, 1, 66)" stroke-width="5.645161290322581"/><title>10 - 20 → ASIAN / PACIFIC ISLANDER: 1</title></g><g style="mix-blend-mode: multiply;"><path d="M5,357.6612903225806C132.5,357.6612903225806,132.5,31.612903225806452,260,31.612903225806452" stroke="rgb(214, 66, 75)" stroke-width="16.935483870967744"/><title>20 - 30 → BLACK HISPANIC: 3</title></g><g style="mix-blend-mode: multiply;"><path d="M5,87.09677419354836C132.5,87.09677419354836,132.5,258.3064516129032,260,258.3064516129032" stroke="rgb(232, 94, 73)" stroke-width="11.290322580645162"/><title>30 - 30 → WHITE HISPANIC: 2</title></g><g style="mix-blend-mode: multiply;"><path d="M5,98.38709677419352C132.5,98.38709677419352,132.5,376.2096774193548,260,376.2096774193548" stroke="rgb(232, 94, 73)" stroke-width="11.290322580645162"/><title>30 - 30 → BLACK: 2</title></g><g style="mix-blend-mode: multiply;"><path d="M5,78.6290322580645C132.5,78.6290322580645,132.5,20.322580645161292,260,20.322580645161292" stroke="rgb(232, 94, 73)" stroke-width="5.645161290322581"/><title>30 - 30 → BLACK HISPANIC: 1</title></g><g style="mix-blend-mode: multiply;"><path d="M5,156.37096774193546C132.5,156.37096774193546,132.5,59.193548387096776,260,59.193548387096776" stroke="rgb(253, 190, 112)" stroke-width="5.645161290322581"/><title>40 - 50 → ASIAN / PACIFIC ISLANDER: 1</title></g><g style="mix-blend-mode: multiply;"><path d="M5,223.46774193548384C132.5,223.46774193548384,132.5,126.29032258064517,260,126.29032258064517" stroke="rgb(158, 1, 66)" stroke-width="5.645161290322581"/><title>10 - 20 → WHITE: 1</title></g><g style="mix-blend-mode: multiply;"><path d="M265,34.435483870967744C392.5,34.435483870967744,392.5,159.8387096774194,520,159.8387096774194" stroke="rgb(67, 143, 180)" stroke-width="33.87096774193549"/><title>BLACK HISPANIC → MALE: 6</title></g><g style="mix-blend-mode: multiply;"><path d="M265,489.11290322580646C392.5,489.11290322580646,392.5,481.61290322580646,520,481.61290322580646" stroke="rgb(86, 173, 174)" stroke-width="146.7741935483871"/><title>BLACK → MALE: 26</title></g><g style="mix-blend-mode: multiply;"><path d="M265,390.32258064516134C392.5,390.32258064516134,392.5,112.5,520,112.5" stroke="rgb(86, 173, 174)" stroke-width="50.80645161290323"/><title>BLACK → FEMALE: 9</title></g><g style="mix-blend-mode: multiply;"><path d="M265,160.16129032258067C392.5,160.16129032258067,392.5,264.27419354838713,520,264.27419354838713" stroke="rgb(72, 111, 176)" stroke-width="107.25806451612904"/><title>WHITE → MALE: 19</title></g><g style="mix-blend-mode: multiply;"><path d="M265,100.88709677419355C392.5,100.88709677419355,392.5,30.64516129032258,520,30.64516129032258" stroke="rgb(72, 111, 176)" stroke-width="11.290322580645162"/><title>WHITE → FEMALE: 2</title></g><g style="mix-blend-mode: multiply;"><path d="M265,314.758064516129C392.5,314.758064516129,392.5,363.0645161290323,520,363.0645161290323" stroke="rgb(94, 79, 162)" stroke-width="90.3225806451613"/><title>WHITE HISPANIC → MALE: 16</title></g><g style="mix-blend-mode: multiply;"><path d="M265,244.19354838709674C392.5,244.19354838709674,392.5,61.693548387096776,520,61.693548387096776" stroke="rgb(94, 79, 162)" stroke-width="50.80645161290323"/><title>WHITE HISPANIC → FEMALE: 9</title></g><g style="mix-blend-mode: multiply;"><path d="M265,73.30645161290323C392.5,73.30645161290323,392.5,193.70967741935488,520,193.70967741935488" stroke="rgb(119, 198, 167)" stroke-width="33.87096774193549"/><title>ASIAN / PACIFIC ISLANDER → MALE: 6</title></g><g style="mix-blend-mode: multiply;"><path d="M525,295.32258064516134C652.5,295.32258064516134,652.5,277.09677419354836,780,277.09677419354836" stroke="rgb(155, 215, 163)" stroke-width="67.74193548387098"/><title>MALE → ANTI-ASIAN: 12</title></g><g style="mix-blend-mode: multiply;"><path d="M525,87.09677419354838C652.5,87.09677419354838,652.5,220.64516129032256,780,220.64516129032256" stroke="rgb(190, 229, 160)" stroke-width="45.16129032258065"/><title>FEMALE → ANTI-ASIAN: 8</title></g><g style="mix-blend-mode: multiply;"><path d="M525,247.33870967741942C652.5,247.33870967741942,652.5,178.95161290322577,780,178.95161290322577" stroke="rgb(155, 215, 163)" stroke-width="28.225806451612904"/><title>MALE → ANTI-BLACK: 5</title></g><g style="mix-blend-mode: multiply;"><path d="M525,58.87096774193549C652.5,58.87096774193549,652.5,159.19354838709674,780,159.19354838709674" stroke="rgb(190, 229, 160)" stroke-width="11.290322580645162"/><title>FEMALE → ANTI-BLACK: 2</title></g><g style="mix-blend-mode: multiply;"><path d="M525,171.12903225806454C652.5,171.12903225806454,652.5,65.16129032258068,780,65.16129032258068" stroke="rgb(155, 215, 163)" stroke-width="22.580645161290324"/><title>MALE → ANTI-FEMALE: 4</title></g><g style="mix-blend-mode: multiply;"><path d="M525,30.64516129032258C652.5,30.64516129032258,652.5,10.64516129032258,780,10.64516129032258" stroke="rgb(190, 229, 160)" stroke-width="11.290322580645162"/><title>FEMALE → ANTI-ISLAMIC(MUSLIM): 2</title></g><g style="mix-blend-mode: multiply;"><path d="M525,495.7258064516129C652.5,495.7258064516129,652.5,515.7258064516128,780,515.7258064516128" stroke="rgb(155, 215, 163)" stroke-width="118.5483870967742"/><title>MALE → ANTI-JEWISH: 21</title></g><g style="mix-blend-mode: multiply;"><path d="M525,126.61290322580646C652.5,126.61290322580646,652.5,445.1612903225806,780,445.1612903225806" stroke="rgb(190, 229, 160)" stroke-width="22.580645161290324"/><title>FEMALE → ANTI-JEWISH: 4</title></g><g style="mix-blend-mode: multiply;"><path d="M525,145.72580645161293C652.5,145.72580645161293,652.5,29.758064516129025,780,29.758064516129025" stroke="rgb(155, 215, 163)" stroke-width="5.645161290322581"/><title>MALE → ANTI-LGBT(MIXED GROUP): 1</title></g><g style="mix-blend-mode: multiply;"><path d="M525,39.11290322580645C652.5,39.11290322580645,652.5,24.112903225806445,780,24.112903225806445" stroke="rgb(190, 229, 160)" stroke-width="5.645161290322581"/><title>FEMALE → ANTI-LGBT(MIXED GROUP): 1</title></g><g style="mix-blend-mode: multiply;"><path d="M525,382.82258064516134C652.5,382.82258064516134,652.5,375.2419354838709,780,375.2419354838709" stroke="rgb(155, 215, 163)" stroke-width="107.25806451612904"/><title>MALE → ANTI-MALE HOMOSEXUAL(GAY): 19</title></g><g style="mix-blend-mode: multiply;"><path d="M525,112.50000000000001C652.5,112.50000000000001,652.5,318.7903225806451,780,318.7903225806451" stroke="rgb(190, 229, 160)" stroke-width="5.645161290322581"/><title>FEMALE → ANTI-MALE HOMOSEXUAL(GAY): 1</title></g><g style="mix-blend-mode: multiply;"><path d="M525,154.19354838709683C652.5,154.19354838709683,652.5,43.22580645161292,780,43.22580645161292" stroke="rgb(155, 215, 163)" stroke-width="11.290322580645162"/><title>MALE → ANTI-TRANSGENDER: 2</title></g><g style="mix-blend-mode: multiply;"><path d="M525,190.8870967741936C652.5,190.8870967741936,652.5,101.20967741935489,780,101.20967741935489" stroke="rgb(155, 215, 163)" stroke-width="16.935483870967744"/><title>MALE → ANTI-WHITE: 3</title></g><g style="mix-blend-mode: multiply;"><path d="M525,47.58064516129033C652.5,47.58064516129033,652.5,87.09677419354843,780,87.09677419354843" stroke="rgb(190, 229, 160)" stroke-width="11.290322580645162"/><title>FEMALE → ANTI-WHITE: 2</title></g><g style="mix-blend-mode: multiply;"><path d="M525,216.2903225806452C652.5,216.2903225806452,652.5,131.6129032258064,780,131.6129032258064" stroke="rgb(155, 215, 163)" stroke-width="33.87096774193549"/><title>MALE → OTHER: 6</title></g></g><g><text x="9" y="2.8225806451612954" text-anchor="start" transform="translate(0,-5)"><tspan alignment-baseline="middle" x="9" style="font-family: Arial, sans-serif; font-size: 10px; fill: black; font-weight: bold;">60 - 60</tspan><tspan alignment-baseline="middle" x="9" dy="12" style="font-family: Arial, sans-serif; font-size: 10px; fill: black; font-weight: normal;">1</tspan></text><text x="9" y="13.467741935483872" text-anchor="start" transform="translate(0,-5)"><tspan alignment-baseline="middle" x="9" style="font-family: Arial, sans-serif; font-size: 10px; fill: black; font-weight: bold;">40 - 40</tspan><tspan alignment-baseline="middle" x="9" dy="12" style="font-family: Arial, sans-serif; font-size: 10px; fill: black; font-weight: normal;">1</tspan></text><text x="9" y="24.112903225806434" text-anchor="start" transform="translate(0,-5)"><tspan alignment-baseline="middle" x="9" style="font-family: Arial, sans-serif; font-size: 10px; fill: black; font-weight: bold;">60 - 70</tspan><tspan alignment-baseline="middle" x="9" dy="12" style="font-family: Arial, sans-serif; font-size: 10px; fill: black; font-weight: normal;">1</tspan></text><text x="9" y="34.758064516129" text-anchor="start" transform="translate(0,-5)"><tspan alignment-baseline="middle" x="9" style="font-family: Arial, sans-serif; font-size: 10px; fill: black; font-weight: bold;">20 - 20</tspan><tspan alignment-baseline="middle" x="9" dy="12" style="font-family: Arial, sans-serif; font-size: 10px; fill: black; font-weight: normal;">1</tspan></text><text x="776" y="10.645161290322577" text-anchor="end" transform="translate(0,-5)"><tspan alignment-baseline="middle" x="776" style="font-family: Arial, sans-serif; font-size: 10px; fill: black; font-weight: bold;">ANTI-ISLAMIC(MUSLIM)</tspan><tspan alignment-baseline="middle" x="776" dy="12" style="font-family: Arial, sans-serif; font-size: 10px; fill: black; font-weight: normal;">2</tspan></text><text x="776" y="26.935483870967744" text-anchor="end" transform="translate(0,-5)"><tspan alignment-baseline="middle" x="776" style="font-family: Arial, sans-serif; font-size: 10px; fill: black; font-weight: bold;">ANTI-LGBT(MIXED GROUP)</tspan><tspan alignment-baseline="middle" x="776" dy="12" style="font-family: Arial, sans-serif; font-size: 10px; fill: black; font-weight: normal;">2</tspan></text><text x="776" y="43.225806451612925" text-anchor="end" transform="translate(0,-5)"><tspan alignment-baseline="middle" x="776" style="font-family: Arial, sans-serif; font-size: 10px; fill: black; font-weight: bold;">ANTI-TRANSGENDER</tspan><tspan alignment-baseline="middle" x="776" dy="12" style="font-family: Arial, sans-serif; font-size: 10px; fill: black; font-weight: normal;">2</tspan></text><text x="776" y="65.16129032258068" text-anchor="end" transform="translate(0,-5)"><tspan alignment-baseline="middle" x="776" style="font-family: Arial, sans-serif; font-size: 10px; fill: black; font-weight: bold;">ANTI-FEMALE</tspan><tspan alignment-baseline="middle" x="776" dy="12" style="font-family: Arial, sans-serif; font-size: 10px; fill: black; font-weight: normal;">4</tspan></text><text x="9" y="56.69354838709674" text-anchor="start" transform="translate(0,-5)"><tspan alignment-baseline="middle" x="9" style="font-family: Arial, sans-serif; font-size: 10px; fill: black; font-weight: bold;">70 - 70</tspan><tspan alignment-baseline="middle" x="9" dy="12" style="font-family: Arial, sans-serif; font-size: 10px; fill: black; font-weight: normal;">5</tspan></text><text x="9" y="89.91935483870967" text-anchor="start" transform="translate(0,-5)"><tspan alignment-baseline="middle" x="9" style="font-family: Arial, sans-serif; font-size: 10px; fill: black; font-weight: bold;">30 - 30</tspan><tspan alignment-baseline="middle" x="9" dy="12" style="font-family: Arial, sans-serif; font-size: 10px; fill: black; font-weight: normal;">5</tspan></text><text x="776" y="95.56451612903226" text-anchor="end" transform="translate(0,-5)"><tspan alignment-baseline="middle" x="776" style="font-family: Arial, sans-serif; font-size: 10px; fill: black; font-weight: bold;">ANTI-WHITE</tspan><tspan alignment-baseline="middle" x="776" dy="12" style="font-family: Arial, sans-serif; font-size: 10px; fill: black; font-weight: normal;">5</tspan></text><text x="269" y="34.435483870967744" text-anchor="start" transform="translate(0,-5)"><tspan alignment-baseline="middle" x="269" style="font-family: Arial, sans-serif; font-size: 10px; fill: black; font-weight: bold;">BLACK HISPANIC</tspan><tspan alignment-baseline="middle" x="269" dy="12" style="font-family: Arial, sans-serif; font-size: 10px; fill: black; font-weight: normal;">6</tspan></text><text x="269" y="73.30645161290323" text-anchor="start" transform="translate(0,-5)"><tspan alignment-baseline="middle" x="269" style="font-family: Arial, sans-serif; font-size: 10px; fill: black; font-weight: bold;">ASIAN / PACIFIC ISLANDER</tspan><tspan alignment-baseline="middle" x="269" dy="12" style="font-family: Arial, sans-serif; font-size: 10px; fill: black; font-weight: normal;">6</tspan></text><text x="776" y="131.6129032258064" text-anchor="end" transform="translate(0,-5)"><tspan alignment-baseline="middle" x="776" style="font-family: Arial, sans-serif; font-size: 10px; fill: black; font-weight: bold;">OTHER</tspan><tspan alignment-baseline="middle" x="776" dy="12" style="font-family: Arial, sans-serif; font-size: 10px; fill: black; font-weight: normal;">6</tspan></text><text x="9" y="128.79032258064515" text-anchor="start" transform="translate(0,-5)"><tspan alignment-baseline="middle" x="9" style="font-family: Arial, sans-serif; font-size: 10px; fill: black; font-weight: bold;">50 - 50</tspan><tspan alignment-baseline="middle" x="9" dy="12" style="font-family: Arial, sans-serif; font-size: 10px; fill: black; font-weight: normal;">7</tspan></text><text x="776" y="173.30645161290317" text-anchor="end" transform="translate(0,-5)"><tspan alignment-baseline="middle" x="776" style="font-family: Arial, sans-serif; font-size: 10px; fill: black; font-weight: bold;">ANTI-BLACK</tspan><tspan alignment-baseline="middle" x="776" dy="12" style="font-family: Arial, sans-serif; font-size: 10px; fill: black; font-weight: normal;">7</tspan></text><text x="9" y="181.77419354838707" text-anchor="start" transform="translate(0,-5)"><tspan alignment-baseline="middle" x="9" style="font-family: Arial, sans-serif; font-size: 10px; fill: black; font-weight: bold;">40 - 50</tspan><tspan alignment-baseline="middle" x="9" dy="12" style="font-family: Arial, sans-serif; font-size: 10px; fill: black; font-weight: normal;">10</tspan></text><text x="9" y="246.04838709677415" text-anchor="start" transform="translate(0,-5)"><tspan alignment-baseline="middle" x="9" style="font-family: Arial, sans-serif; font-size: 10px; fill: black; font-weight: bold;">10 - 20</tspan><tspan alignment-baseline="middle" x="9" dy="12" style="font-family: Arial, sans-serif; font-size: 10px; fill: black; font-weight: normal;">11</tspan></text><text x="9" y="313.14516129032256" text-anchor="start" transform="translate(0,-5)"><tspan alignment-baseline="middle" x="9" style="font-family: Arial, sans-serif; font-size: 10px; fill: black; font-weight: bold;">50 - 60</tspan><tspan alignment-baseline="middle" x="9" dy="12" style="font-family: Arial, sans-serif; font-size: 10px; fill: black; font-weight: normal;">11</tspan></text><text x="9" y="400" text-anchor="start" transform="translate(0,-5)"><tspan alignment-baseline="middle" x="9" style="font-family: Arial, sans-serif; font-size: 10px; fill: black; font-weight: bold;">20 - 30</tspan><tspan alignment-baseline="middle" x="9" dy="12" style="font-family: Arial, sans-serif; font-size: 10px; fill: black; font-weight: normal;">18</tspan></text><text x="516" y="81.45161290322582" text-anchor="end" transform="translate(0,-5)"><tspan alignment-baseline="middle" x="516" style="font-family: Arial, sans-serif; font-size: 10px; fill: black; font-weight: bold;">FEMALE</tspan><tspan alignment-baseline="middle" x="516" dy="12" style="font-family: Arial, sans-serif; font-size: 10px; fill: black; font-weight: normal;">20</tspan></text><text x="776" y="254.51612903225805" text-anchor="end" transform="translate(0,-5)"><tspan alignment-baseline="middle" x="776" style="font-family: Arial, sans-serif; font-size: 10px; fill: black; font-weight: bold;">ANTI-ASIAN</tspan><tspan alignment-baseline="middle" x="776" dy="12" style="font-family: Arial, sans-serif; font-size: 10px; fill: black; font-weight: normal;">20</tspan></text><text x="776" y="372.41935483870964" text-anchor="end" transform="translate(0,-5)"><tspan alignment-baseline="middle" x="776" style="font-family: Arial, sans-serif; font-size: 10px; fill: black; font-weight: bold;">ANTI-MALE HOMOSEXUAL(GAY)</tspan><tspan alignment-baseline="middle" x="776" dy="12" style="font-family: Arial, sans-serif; font-size: 10px; fill: black; font-weight: normal;">20</tspan></text><text x="269" y="154.51612903225805" text-anchor="start" transform="translate(0,-5)"><tspan alignment-baseline="middle" x="269" style="font-family: Arial, sans-serif; font-size: 10px; fill: black; font-weight: bold;">WHITE</tspan><tspan alignment-baseline="middle" x="269" dy="12" style="font-family: Arial, sans-serif; font-size: 10px; fill: black; font-weight: normal;">21</tspan></text><text x="9" y="517.9032258064516" text-anchor="start" transform="translate(0,-5)"><tspan alignment-baseline="middle" x="9" style="font-family: Arial, sans-serif; font-size: 10px; fill: black; font-weight: bold;">30 - 40</tspan><tspan alignment-baseline="middle" x="9" dy="12" style="font-family: Arial, sans-serif; font-size: 10px; fill: black; font-weight: normal;">22</tspan></text><text x="269" y="289.35483870967744" text-anchor="start" transform="translate(0,-5)"><tspan alignment-baseline="middle" x="269" style="font-family: Arial, sans-serif; font-size: 10px; fill: black; font-weight: bold;">WHITE HISPANIC</tspan><tspan alignment-baseline="middle" x="269" dy="12" style="font-family: Arial, sans-serif; font-size: 10px; fill: black; font-weight: normal;">25</tspan></text><text x="776" y="504.4354838709677" text-anchor="end" transform="translate(0,-5)"><tspan alignment-baseline="middle" x="776" style="font-family: Arial, sans-serif; font-size: 10px; fill: black; font-weight: bold;">ANTI-JEWISH</tspan><tspan alignment-baseline="middle" x="776" dy="12" style="font-family: Arial, sans-serif; font-size: 10px; fill: black; font-weight: normal;">25</tspan></text><text x="269" y="463.7096774193549" text-anchor="start" transform="translate(0,-5)"><tspan alignment-baseline="middle" x="269" style="font-family: Arial, sans-serif; font-size: 10px; fill: black; font-weight: bold;">BLACK</tspan><tspan alignment-baseline="middle" x="269" dy="12" style="font-family: Arial, sans-serif; font-size: 10px; fill: black; font-weight: normal;">35</tspan></text><text x="516" y="348.95161290322585" text-anchor="end" transform="translate(0,-5)"><tspan alignment-baseline="middle" x="516" style="font-family: Arial, sans-serif; font-size: 10px; fill: black; font-weight: bold;">MALE</tspan><tspan alignment-baseline="middle" x="516" dy="12" style="font-family: Arial, sans-serif; font-size: 10px; fill: black; font-weight: normal;">73</tspan></text></g><g><text x="2.5" y="-4" text-anchor="middle" style="font-family: Arial, sans-serif; font-size: 12px; fill: rgb(123, 123, 123); font-weight: bold;">Age group</text><text x="782.5" y="1" text-anchor="middle" style="font-family: Arial, sans-serif; font-size: 12px; fill: rgb(123, 123, 123); font-weight: bold;">Bias-Motivation</text><text x="262.5" y="13.5" text-anchor="middle" style="font-family: Arial, sans-serif; font-size: 12px; fill: rgb(123, 123, 123); font-weight: bold;">Race</text><text x="522.5" y="21" text-anchor="middle" style="font-family: Arial, sans-serif; font-size: 12px; fill: rgb(123, 123, 123); font-weight: bold;">Gender</text></g></g></svg>